<?xml version="1.0" encoding="utf-8"?>
<!-- Generator: Adobe Illustrator 22.0.0, SVG Export Plug-In . SVG Version: 6.00 Build 0)  -->
<svg version="1.1" id="Capa_1" xmlns="http://www.w3.org/2000/svg" xmlns:xlink="http://www.w3.org/1999/xlink" x="0px" y="0px"
	 viewBox="0 0 286.4 286.4" style="enable-background:new 0 0 286.4 286.4;" xml:space="preserve">
<style type="text/css">
	.st0{fill:#423B97;stroke:#423B97;stroke-miterlimit:10;}
	.st1{fill:#FFFFFF;stroke:#423B97;stroke-miterlimit:10;}
	.st2{fill:#423B97;}
	.st3{fill:none;stroke:#423B97;stroke-miterlimit:10;}
	.st4{fill:#ED7423;}
</style>
<g>
	<g>
		<path class="st0" d="M-69.7,33.6H-294c-15.5,0-28,12.3-28,27.5v137.7c0,15.2,12.6,27.5,28,27.5h224.3c15.5,0,28-12.3,28-27.5V61.1
			C-41.7,45.9-54.2,33.6-69.7,33.6z"/>
		<path class="st1" d="M-322.1,67.8v131.1c0,15.2,12.6,27.5,28,27.5h224.3c15.5,0,28-12.3,28-27.5V67.8H-322.1z"/>
	</g>
	
		<text transform="matrix(1 0 0 1 -267.2761 57.2929)" style="fill:#FFFFFF; font-family:'MartianBThai-Bold'; font-size:19.5834px;">CARTE D’IDENTITE</text>
	<g>
		<path class="st2" d="M-240.2,121.1L-240.2,121.1c-0.6-0.4-1.2-0.3-1.4,0.4c0,0,1.8-10.8,0.4-15.3c-3.1-11.8-28.9-15.1-28.9-7.8
			c-11.2,3.4-9.1,14.7-7.6,23.2c0,0-0.8-1-1.8,0c-1.2,1.4,0.1,4.6,0.6,6.3c0.3,1.1,0.6,2,0.9,2.7v0.3c0,1.3,0.4,2.1,1,2.1
			c2.6,10.7,10.4,19.5,17.3,19.5c6.4,0,14.3-8.8,17-19.5c0.5,0,0.9-0.9,0.9-2.1v-0.1c0.4-0.7,0.6-1.5,1.1-2.8
			C-240.3,126.4-238.7,122.3-240.2,121.1L-240.2,121.1z"/>
		<path class="st2" d="M-271.8,151.8c-20.5,12.3-30.8,5.3-30.8,35.2h43h0.4h42.2c0-28.7-10.3-22.8-30.6-35.2
			c-3.5,3.5-7.6,5.9-12,5.9C-264.3,157.7-268.5,155.3-271.8,151.8L-271.8,151.8z"/>
	</g>
	<g>
		<path class="st2" d="M-191.9,84.7h125.2v8.5h-125.2V84.7z M-143.1,187.1L-143.1,187.1h74.5v8.4h-74.5L-143.1,187.1L-143.1,187.1z
			 M-191.9,144.6L-191.9,144.6h71.3v8.5h-71.3V144.6z M-191.9,124.7L-191.9,124.7h125.2v8.6h-125.2V124.7z M-191.9,104.7
			L-191.9,104.7h125.2v8.5h-125.2V104.7z"/>
	</g>
	<rect x="-302.6" y="86.7" class="st3" width="85.7" height="100.3"/>
</g>
<image style="overflow:visible;" width="217" height="232" xlink:href="../../../Desktop/images.png"  transform="matrix(1 0 0 1 842.2681 -37.715)">
</image>
<path class="st2" d="M264.5-60.5h-28.7c-1.2,0-2.1-1-2.1-2.1v-41.7c0-1.2,1-2.1,2.1-2.1h28.7c1.2,0,2.1,1,2.1,2.1v41.7
	C266.6-61.5,265.7-60.5,264.5-60.5z"/>
<g>
	<g>
		<path class="st4" d="M65.2,266h-3.5c-5.9,0-10.7-4.8-10.7-10.7v-62.7c0-5.9,4.8-10.7,10.7-10.7h3.5c5.9,0,10.7,4.8,10.7,10.7v62.7
			C75.9,261.2,71.1,266,65.2,266z"/>
		<path class="st4" d="M94.5,266H91c-5.9,0-10.7-4.8-10.7-10.7v-62.7c0-5.9,4.8-10.7,10.7-10.7h3.5c5.9,0,10.7,4.8,10.7,10.7v62.7
			C105.1,261.2,100.3,266,94.5,266z"/>
	</g>
	<g>
		<path class="st4" d="M29.8,203.6h-0.9c-4.3,0-7.9-3.6-7.9-7.9v-49.3c0-4.3,3.6-7.9,7.9-7.9h0.9c4.3,0,7.9,3.6,7.9,7.9v49.3
			C37.7,200,34.2,203.6,29.8,203.6z"/>
		<path class="st4" d="M26.8,152.1L26.8,152.1c-4.3-1.6-6.3-5.9-4.6-9.7l24.9-54.2c1.7-3.8,6.6-5.6,10.9-4.1h0
			c4.3,1.6,6.3,5.9,4.6,9.7L37.7,148C35.9,151.8,31,153.6,26.8,152.1z"/>
	</g>
	<g>
		<path class="st4" d="M126.6,203.6h0.5c4.2,0,7.7-3.5,7.7-7.7v-49.7c0-4.2-3.5-7.7-7.7-7.7h-0.5c-4.2,0-7.7,3.5-7.7,7.7v49.7
			C118.9,200.1,122.4,203.6,126.6,203.6z"/>
		<path class="st4" d="M129.3,152.1L129.3,152.1c4-1.6,6-5.9,4.3-9.7l-23.6-54.2c-1.6-3.8-6.3-5.6-10.3-4.1h0c-4,1.6-6,5.9-4.3,9.7
			L119,148C120.7,151.8,125.3,153.6,129.3,152.1z"/>
	</g>
	<path class="st4" d="M51.4,181.5c0,0,10.9-13.1,27,1.7c0,0,12.3-16.2,25.3-1.7c0-22.9,0.1-45.9,0.1-68.8c1,2.4,2,4.8,3,7.2
		c3.7-4.2,7.5-8.5,11.2-12.7c-1.3-3.2-3.2-7-5.9-11c-4-5.7-8.3-9.8-11.7-12.4H54.6c-2,1.4-4.3,3.4-6.7,5.9c-3,3.2-5.1,6.3-6.5,8.9
		c3.4,4.1,6.7,8.3,10.1,12.4c-0.1,3-0.2,6.1-0.3,9.1L51.4,181.5z"/>
	<path class="st4" d="M18.7,103"/>
	<circle class="st4" cx="78.6" cy="52.4" r="25.1"/>
	<path class="st4" d="M18,200.7c0,0,10.2,18.1,24.2,0h3.1v32.9l-61.4,0.1v-32.9H18z"/>
	<path class="st4" d="M114.5,201.5c14.1,18.1,24.2,0,24.2,0h7.4v32.9l-34.8,0v-32.9H114.5z"/>
	<g>
		<path class="st4" d="M200.7,266.8h-3.5c-5.9,0-10.7-4.8-10.7-10.7v-62.7c0-5.9,4.8-10.7,10.7-10.7h3.5c5.9,0,10.7,4.8,10.7,10.7
			v62.7C211.4,262,206.6,266.8,200.7,266.8z"/>
		<path class="st4" d="M229.9,266.8h-3.5c-5.9,0-10.7-4.8-10.7-10.7v-62.7c0-5.9,4.8-10.7,10.7-10.7h3.5c5.9,0,10.7,4.8,10.7,10.7
			v62.7C240.6,262,235.8,266.8,229.9,266.8z"/>
	</g>
	<g>
		<path class="st4" d="M165.3,204.3h-0.9c-4.3,0-7.9-3.6-7.9-7.9v-49.3c0-4.3,3.6-7.9,7.9-7.9h0.9c4.3,0,7.9,3.6,7.9,7.9v49.3
			C173.2,200.8,169.7,204.3,165.3,204.3z"/>
		<path class="st4" d="M162.2,152.8L162.2,152.8c-4.3-1.6-6.3-5.9-4.6-9.7l24.9-54.2c1.7-3.8,6.6-5.6,10.9-4.1l0,0
			c4.3,1.6,6.3,5.9,4.6,9.7l-24.9,54.2C171.4,152.6,166.5,154.4,162.2,152.8z"/>
	</g>
	<g>
		<path class="st4" d="M262.1,204.3h0.5c4.2,0,7.7-3.5,7.7-7.7V147c0-4.2-3.5-7.7-7.7-7.7h-0.5c-4.2,0-7.7,3.5-7.7,7.7v49.7
			C254.4,200.9,257.9,204.3,262.1,204.3z"/>
		<path class="st4" d="M264.8,152.8L264.8,152.8c4-1.6,6-5.9,4.3-9.7l-23.6-54.2c-1.6-3.8-6.3-5.6-10.3-4.1l0,0
			c-4,1.6-6,5.9-4.3,9.7l23.6,54.2C256.1,152.6,260.8,154.4,264.8,152.8z"/>
	</g>
	<path class="st4" d="M186.9,182.2c0,0,10.9-13.1,27,1.7c0,0,12.3-16.2,25.3-1.7c0-22.9,0.1-45.9,0.1-68.8c1,2.4,2,4.8,3,7.2
		c3.7-4.2,7.5-8.5,11.2-12.7c-1.3-3.2-3.2-7-5.9-11c-4-5.7-8.3-9.8-11.7-12.4h-45.8c-2,1.4-4.3,3.4-6.7,5.9c-3,3.2-5.1,6.3-6.5,8.9
		c3.4,4.1,6.7,8.3,10.1,12.4c-0.1,3-0.2,6.1-0.3,9.1L186.9,182.2z"/>
	<path class="st4" d="M154.2,103.8"/>
	<circle class="st4" cx="214.1" cy="53.2" r="25.1"/>
	<path class="st4" d="M274.4,201.5c0,0-10.2,18.1-24.2,0h-3.1v32.9l61.4,0.1v-32.9H274.4z"/>
	<path class="st4" d="M177.7,201.5c-14.1,18.1-24.2,0-24.2,0H146v32.9l34.8,0v-32.9H177.7z"/>
</g>
</svg>
