<?xml version="1.0" encoding="utf-8"?>
<!-- Generator: Adobe Illustrator 22.0.0, SVG Export Plug-In . SVG Version: 6.00 Build 0)  -->
<svg version="1.1" id="Layer_1" xmlns="http://www.w3.org/2000/svg" xmlns:xlink="http://www.w3.org/1999/xlink" x="0px" y="0px"
	 viewBox="0 0 290.6 290.6" style="enable-background:new 0 0 290.6 290.6;" xml:space="preserve">
<style type="text/css">
	.st0{fill:#ED7423;}
</style>
<path class="st0" d="M126.6,70.3H98.4V14.1C98.4,6.3,92.1,0,84.4,0H56.3c-7.8,0-14.1,6.3-14.1,14.1v56.3H14.1
	C6.3,70.3,0,76.6,0,84.4v168.8c0,5.3,3,9.9,7.3,12.3c-1.6,2.6-2.6,5.6-2.6,8.8c0,9,7.4,16.4,16.4,16.4s16.4-7.4,16.4-16.4
	c0-2.5-0.6-4.9-1.6-7h68.9c-1,2.1-1.6,4.5-1.6,7c0,9,7.4,16.4,16.4,16.4s16.4-7.4,16.4-16.4c0-3.3-1-6.3-2.6-8.8
	c4.3-2.4,7.3-7,7.3-12.3V84.4C140.6,76.6,134.3,70.3,126.6,70.3z M51.6,14.1c0-2.6,2.1-4.7,4.7-4.7h28.1c2.6,0,4.7,2.1,4.7,4.7v4.7
	H51.6C51.6,18.8,51.6,14.1,51.6,14.1z M51.6,28.1h37.5v42.2H51.6C51.6,70.3,51.6,28.1,51.6,28.1z M9.4,84.4c0-2.6,2.1-4.7,4.7-4.7
	h4.7v14.1H9.4V84.4z M9.4,253.1v-9.4h0h9.4v14.1h-4.7C11.5,257.8,9.4,255.7,9.4,253.1z M21.1,281.3c-3.9,0-7-3.2-7-7s3.2-7,7-7
	s7,3.2,7,7S25,281.3,21.1,281.3z M119.5,281.3c-3.9,0-7-3.2-7-7s3.2-7,7-7s7,3.2,7,7S123.4,281.3,119.5,281.3z M131.3,253.1
	c0,2.6-2.1,4.7-4.7,4.7h-4.7v-14.1h9.4V253.1z M131.3,234.4h-9.4c-5.2,0-9.4,4.2-9.4,9.4v14.1H28.1v-14.1c0-5.2-4.2-9.4-9.4-9.4H9.4
	V103.1h9.4c5.2,0,9.4-4.2,9.4-9.4V79.7h14.1h56.3h14.1v14.1c0,5.2,4.2,9.4,9.4,9.4h9.4V234.4z M131.3,93.8h-9.4V79.7h4.7
	c2.6,0,4.7,2.1,4.7,4.7V93.8z"/>
<rect x="23.4" y="112.5" class="st0" width="9.4" height="112.5"/>
<rect x="46.9" y="112.5" class="st0" width="9.4" height="112.5"/>
<rect x="107.8" y="112.5" class="st0" width="9.4" height="112.5"/>
<rect x="84.4" y="112.5" class="st0" width="9.4" height="112.5"/>
<path class="st0" d="M276.6,112.5H164.1c-7.8,0-14.1,6.3-14.1,14.1v126.6c0,5.3,3,9.9,7.3,12.3c-1.6,2.6-2.6,5.6-2.6,8.8
	c0,9,7.4,16.4,16.4,16.4s16.4-7.4,16.4-16.4c0-2.5-0.6-4.9-1.6-7h68.9c-1,2.1-1.6,4.5-1.6,7c0,9,7.4,16.4,16.4,16.4
	s16.4-7.4,16.4-16.4c0-3.3-1-6.3-2.6-8.8c4.3-2.4,7.3-7,7.3-12.3V126.6C290.6,118.8,284.3,112.5,276.6,112.5z M171.1,281.3
	c-3.9,0-7-3.2-7-7s3.2-7,7-7s7,3.2,7,7S175,281.3,171.1,281.3z M269.5,281.3c-3.9,0-7-3.2-7-7s3.2-7,7-7c3.9,0,7,3.2,7,7
	S273.4,281.3,269.5,281.3z M281.2,253.1c0,2.6-2.1,4.7-4.7,4.7H164.1c-2.6,0-4.7-2.1-4.7-4.7v-95.8l8.1-4.8c7.8-4.7,16.8-7.2,26-7.2
	h39.2l-2.6,7.9c-0.8,2.5,0.5,5.1,3,5.9c0.5,0.2,1,0.2,1.5,0.2c2,0,3.8-1.2,4.4-3.2l3.6-10.9h2.6l3.6,10.9c0.7,2,2.5,3.2,4.4,3.2
	c0.5,0,1-0.1,1.5-0.2c2.5-0.8,3.8-3.5,3-5.9l-2.4-7.2c6.3,1,12.5,3.2,18,6.5l8.1,4.8V253.1z M281.3,146.4l-3.2-1.9
	c-8.8-5.3-18.8-8.2-29-8.5c-0.1,0-0.3,0-0.4,0c-0.4,0-0.9,0-1.3,0h-53.8c-10.8,0-21.5,2.9-30.8,8.5l-3.2,1.9v-19.8
	c0-2.6,2.1-4.7,4.7-4.7h112.5c2.6,0,4.7,2.1,4.7,4.7L281.3,146.4L281.3,146.4z"/>
<path class="st0" d="M164.1,107.8h112.5c7.8,0,14.1-6.3,14-14.5l-4-39.7c-0.5-5.3-2-10.5-4.4-15.3c-7.4-14.7-22.1-23.9-38.5-24.2
	v-0.1c0-7.8-6.3-14.1-14.1-14.1h-18.8c-7.8,0-14.1,6.3-14.1,14.1v0.1c-16.4,0.3-31.1,9.5-38.5,24.2c-2.4,4.8-3.9,9.9-4.4,15.3
	l-4,40.2C150,101.5,156.3,107.8,164.1,107.8z M210.9,9.4h18.8c2.6,0,4.7,2.1,4.7,4.7h-28.1C206.3,11.5,208.4,9.4,210.9,9.4z
	 M163.3,54.5c0.4-4.2,1.6-8.2,3.5-12c5.9-11.8,17.7-19.1,30.9-19.1H243c13.2,0,25,7.3,30.9,19.1c1.9,3.8,3.1,7.8,3.5,12l3.9,39.2
	c0,2.6-2.1,4.7-4.7,4.7H164.1c-2.6,0-4.7-2.1-4.7-4.2L163.3,54.5z"/>
<path class="st0" d="M239.1,51.6L239.1,51.6c0,2.6,2.1,4.7,4.7,4.7s4.7-2.1,4.7-4.7v-9.4h9.4v-9.4h-75v9.4h56.3V51.6z"/>
</svg>
