<?xml version="1.0" encoding="utf-8"?>
<!-- Generator: Adobe Illustrator 22.0.0, SVG Export Plug-In . SVG Version: 6.00 Build 0)  -->
<svg version="1.1" id="Capa_1" xmlns="http://www.w3.org/2000/svg" xmlns:xlink="http://www.w3.org/1999/xlink" x="0px" y="0px"
	 viewBox="0 0 254.9 254.9" style="enable-background:new 0 0 254.9 254.9;" xml:space="preserve">
<style type="text/css">
	.st0{fill:#ED7423;}
</style>
<g>
	<g>
		<path class="st0" d="M31,140.7h9.4c0,0,1.1-4.9,2.6-11c1.4-6.1,12.6-11,24.9-11h122.9c12.3,0,23,4.9,23.9,11l1.5,11h8.5
			c12.3,0,22.3-10,22.3-22.3V76.7c0-10.3-7-18.9-16.5-21.5c0.5,2.1,0.9,4.3,0.9,6.6v8.9c0,14.8-12,26.8-26.8,26.8H51.1
			c-14.8,0-26.8-12-26.8-26.8v-8.9c0-2.3,0.3-4.5,0.8-6.6C15.7,57.8,8.7,66.4,8.7,76.7v41.7C8.7,130.7,18.7,140.7,31,140.7z"/>
		<path class="st0" d="M51.1,88.6h153.4c9.9,0,17.9-8,17.9-17.9v-8.9c0-2.7-0.6-5.2-1.7-7.4H34.9c-1.1,2.3-1.7,4.8-1.7,7.4v8.9
			C33.2,80.6,41.3,88.6,51.1,88.6z M42.2,62.2h168.7c1.2,0,2.2,1,2.2,2.2c0,1.2-1,2.2-2.2,2.2H42.2c-1.2,0-2.2-1-2.2-2.2
			C40,63.2,41,62.2,42.2,62.2z M42.2,76.2h168.7c1.2,0,2.2,1,2.2,2.2s-1,2.2-2.2,2.2H42.2c-1.2,0-2.2-1-2.2-2.2S41,76.2,42.2,76.2z"
			/>
		<path class="st0" d="M207.7,132.5c-0.7-4.5-11.2-8.2-23.5-8.2h-111c-12.3,0-23,3.7-23.8,8.2s-1.5,8.2-1.5,8.2h161L207.7,132.5z"/>
		<path class="st0" d="M62.8,210.4c0.8,0.7,1.9,1.1,2.9,1.1c1.3,0,2.5-0.5,3.4-1.5c0.7-0.8,16.8-19.7,4.6-35.1
			c-6.8-8.5-1.8-13.5-0.7-14.4c1.9-1.5,2.2-4.3,0.7-6.2s-4.3-2.2-6.3-0.7c-4.7,3.7-10.9,14.2-0.7,26.9c7.6,9.6-4.2,23.6-4.3,23.7
			C60.7,205.9,60.9,208.8,62.8,210.4z"/>
		<path class="st0" d="M101.9,210.4c0.8,0.7,1.9,1.1,2.9,1.1c1.3,0,2.5-0.5,3.4-1.5c0.7-0.8,16.8-19.7,4.6-35.1
			c-6.8-8.5-1.8-13.5-0.7-14.4c1.9-1.5,2.2-4.3,0.7-6.2s-4.3-2.2-6.3-0.7c-4.7,3.7-10.9,14.2-0.7,26.9c7.6,9.6-4.2,23.6-4.3,23.7
			C99.8,205.9,100,208.8,101.9,210.4z"/>
		<path class="st0" d="M141,210.4c0.8,0.7,1.9,1.1,2.9,1.1c1.3,0,2.5-0.5,3.4-1.5c0.7-0.8,16.8-19.7,4.6-35.1
			c-6.8-8.5-1.8-13.5-0.7-14.4c1.9-1.5,2.2-4.3,0.7-6.2s-4.3-2.2-6.3-0.7c-4.7,3.7-10.9,14.2-0.7,26.9c7.6,9.6-4.2,23.6-4.4,23.7
			C138.9,205.9,139.1,208.8,141,210.4z"/>
		<path class="st0" d="M180.1,210.4c0.8,0.7,1.9,1.1,2.9,1.1c1.3,0,2.5-0.5,3.4-1.5c0.7-0.8,16.8-19.7,4.6-35.1
			c-6.8-8.5-1.8-13.5-0.7-14.4c1.9-1.5,2.2-4.3,0.7-6.2s-4.3-2.2-6.3-0.7c-4.7,3.7-10.9,14.2-0.7,26.9c7.6,9.6-4.2,23.6-4.4,23.7
			C178,205.9,178.2,208.8,180.1,210.4z"/>
	</g>
</g>
</svg>
