<?xml version="1.0" encoding="utf-8"?>
<!-- Generator: Adobe Illustrator 22.0.0, SVG Export Plug-In . SVG Version: 6.00 Build 0)  -->
<svg version="1.1" id="Capa_1" xmlns="http://www.w3.org/2000/svg" xmlns:xlink="http://www.w3.org/1999/xlink" x="0px" y="0px"
	 viewBox="0 0 254.9 254.9" style="enable-background:new 0 0 254.9 254.9;" xml:space="preserve">
<style type="text/css">
	.st0{fill:none;stroke:#ED7423;stroke-width:17;}
	.st1{fill:#ED7423;}
</style>
<g>
	<g transform="translate(1 5)">
		<path class="st0" d="M31.3,43.5h191.4c11.7,0,21.3,9.6,21.3,21.3v106.3c0,11.7-9.6,21.3-21.3,21.3H31.3
			c-11.7,0-21.3-9.6-21.3-21.3V64.8C10,53.1,19.6,43.5,31.3,43.5z"/>
		<path class="st1" d="M90.2,143.7c0,3.6-2.4,7.3-7.3,7.3c-3.6,0-6-1.2-7.3-3.6l-2.4-7.3H45.4l-2.4,7.3c-1.2,2.4-3.6,4.8-7.3,4.8
			s-7.3-3.6-7.3-7.3c0-1.2,0-2.4,0-2.4l19.4-48.4c1.2-4.8,6-7.3,10.9-7.3s9.7,2.4,12.1,7.3L90.2,143.7L90.2,143.7z M69.6,127.9
			l-9.7-27.8L49,127.9C49,127.9,69.6,127.9,69.6,127.9z M154.3,134c0,9.7-6,16.9-19.4,16.9h-26.6c-4.8,0-7.3-3.6-7.3-7.3l0,0V94.1
			c0-3.6,3.6-7.3,7.3-7.3h26.6c12.1,0,18.1,8.5,18.1,16.9s-4.8,13.3-10.9,14.5C149.4,118.3,154.3,125.5,154.3,134L154.3,134z
			 M139.8,105c0-3.6-2.4-7.3-7.3-7.3h-18.1v14.5h16.9C136.1,112.2,139.8,109.8,139.8,105L139.8,105z M141,131.6
			c0-3.6-2.4-7.3-8.5-7.3h-18.1v14.5h18.1C137.3,138.8,141,136.4,141,131.6z M197.8,85.6c-19.4,0-33.9,13.3-33.9,33.9
			s14.5,33.9,33.9,33.9c10.9,0,18.1-4.8,23-10.9c1.2-1.2,1.2-2.4,1.2-3.6c0-3.6-2.4-6-6-6l0,0c-2.4,0-3.6,1.2-4.8,2.4
			c-3.6,3.6-8.5,6-13.3,6c-12.1,0-20.6-8.5-20.6-20.6s8.5-21.8,20.6-21.8c4.8,0,9.7,2.4,13.3,6c1.2,1.2,3.6,2.4,4.8,2.4
			c3.6,0,6-2.4,6-6c0-1.2,0-2.4-1.2-3.6C216,89.2,207.5,85.6,197.8,85.6z"/>
	</g>
</g>
</svg>
