<?xml version="1.0" encoding="utf-8"?>
<!-- Generator: Adobe Illustrator 22.0.0, SVG Export Plug-In . SVG Version: 6.00 Build 0)  -->
<svg version="1.1" id="Layer_1" xmlns="http://www.w3.org/2000/svg" xmlns:xlink="http://www.w3.org/1999/xlink" x="0px" y="0px"
	 viewBox="0 0 512 512" style="enable-background:new 0 0 512 512;" xml:space="preserve">
<style type="text/css">
	.st0{fill:#ED7423;}
</style>
<g>
	<path class="st0" d="M96,487.7c-1.1,0-3.2,0-4.3-1.1c-4.3-2.1-6.4-5.3-6.4-9.6v-74.7h21.3v49.1l45.9-45.9c2.1-2.1,4.3-3.2,7.5-3.2
		h298.7c6.4,0,10.7-4.3,10.7-10.7V189h21.3v202.7c0,18.1-13.9,32-32,32H164.3l-60.8,60.8C101.3,486.6,99.2,487.7,96,487.7z"/>
	<path class="st0" d="M64,423.7H53.3c-18.1,0-32-13.9-32-32V93c0-18.1,13.9-32,32-32h309.3v21.3H53.3c-6.4,0-10.7,4.3-10.7,10.7
		v298.7c0,6.4,4.3,10.7,10.7,10.7H64V423.7z"/>
	<path class="st0" d="M448,423.7h10.7c18.1,0,32-13.9,32-32V93c0-18.1-13.9-32-32-32H149.3v21.3h309.3c6.4,0,10.7,4.3,10.7,10.7
		v298.7c0,6.4-4.3,10.7-10.7,10.7H448V423.7z"/>
</g>
<g>
	<rect x="181.3" y="234.7" class="st0" width="21.3" height="21.3"/>
	<rect x="224" y="234.7" class="st0" width="21.3" height="21.3"/>
	<rect x="266.7" y="234.7" class="st0" width="21.3" height="21.3"/>
</g>
</svg>
