<?xml version="1.0" encoding="utf-8"?>
<!-- Generator: Adobe Illustrator 22.0.0, SVG Export Plug-In . SVG Version: 6.00 Build 0)  -->
<svg version="1.1" id="Calque_1" xmlns="http://www.w3.org/2000/svg" xmlns:xlink="http://www.w3.org/1999/xlink" x="0px" y="0px"
	 viewBox="0 0 24 24" style="enable-background:new 0 0 24 24;" xml:space="preserve">
<style type="text/css">
	.st0{fill:none;}
	.st1{fill:#ED7423;}
</style>
<rect class="st0" width="24" height="24"/>
<path class="st1" d="M12,0C5.4,0,0,5.4,0,12s5.4,12,12,12s12-5.4,12-12S18.6,0,12,0z M12,1.8c5.6,0,10.2,4.5,10.2,10.2l0,0
	c0,5.6-4.5,10.2-10.2,10.2l0,0C6.4,22.2,1.8,17.7,1.8,12l0,0C1.8,6.4,6.3,1.8,12,1.8L12,1.8z"/>
<path class="st1" d="M7.1,7.6l-2.4,1c0,0-1.1,1.2,0.8,1.3l1.6-1.4l0.8,2.3c0,0,1.1,0.2,1.5-0.9L7.7,7.8c1.1-2,2.8-2.9,3.7-2.5
	c0.1,0.1,0.6,0.3,0.9,1.4c-0.3,0-0.6,0-0.9-0.1c0,0.4,0,0.8,0,1.3c-0.9,0-1.8,0-2.7,0l2.3,3c0,0-1.4,1.5,0.5,1.5l0.3,1.6
	c-0.7,0.2-1.3,0.4-2,0.5c0.6,0,1.3,0,1.9,0c0,0,0.4,1.2,0.3,1.8c0,0-1.1,0-1.6,0.4H12l0.2,1.5c0,0-0.6-0.2-1.3,0.2l1.2,0.1l0.1,0.8
	c0,0-0.7,0.6,0,0.7s1.4,0,1-0.6c0,0-0.2-0.9,0.1-1l1.2,0.1c0,0-0.7-0.4-1.2-0.4l-0.1-0.2v-1l0.4-0.2H15c0,0-0.9-0.5-1.7-0.5
	c0,0,0-0.3,0-0.7c0-0.2,0-0.4,0.1-0.6c0.1-0.2,0.2-0.3,0.3-0.4c0.7,0,1.4,0,2.1,0.1c0,0-1.3-0.6-2.2-0.5l-0.1-0.2l0.2-1.5
	c0,0,2.1-0.1,0.6-1.5l2.3-3L14.1,8C14.1,8,12.4,0.1,7.1,7.6L7.1,7.6z"/>
</svg>
